<mxfile host="app.diagrams.net" modified="2023-12-16T16:05:28.960Z" agent="Mozilla/5.0 (Windows NT 10.0; Win64; x64) AppleWebKit/537.36 (KHTML, like Gecko) Chrome/120.0.0.0 Safari/537.36" etag="XFtT1PiTNojsRFenw8wS" version="22.1.11" type="github" pages="2">
  <diagram id="C5RBs43oDa-KdzZeNtuy" name="Main">
    <mxGraphModel dx="954" dy="558" grid="1" gridSize="10" guides="1" tooltips="1" connect="1" arrows="1" fold="1" page="1" pageScale="1" pageWidth="827" pageHeight="1169" math="0" shadow="0">
      <root>
        <mxCell id="WIyWlLk6GJQsqaUBKTNV-0" />
        <mxCell id="WIyWlLk6GJQsqaUBKTNV-1" parent="WIyWlLk6GJQsqaUBKTNV-0" />
        <mxCell id="NSDdITifI_UyCzYwIbky-13" value="&lt;font style=&quot;font-size: 12px;&quot;&gt;Начало&lt;/font&gt;" style="strokeWidth=2;html=1;shape=mxgraph.flowchart.terminator;whiteSpace=wrap;" vertex="1" parent="WIyWlLk6GJQsqaUBKTNV-1">
          <mxGeometry x="40" y="40" width="120" height="40" as="geometry" />
        </mxCell>
        <mxCell id="NSDdITifI_UyCzYwIbky-14" value="&lt;p style=&quot;line-height: 90%; font-size: 10px;&quot;&gt;r = 1e9 + 9&lt;br&gt;t = 43&lt;br&gt;b = 47&lt;br&gt;flag = 1&lt;br&gt;lines = 0&lt;br&gt;cnt_words_bef = 0&lt;br&gt;&lt;/p&gt;" style="rounded=0;whiteSpace=wrap;html=1;" vertex="1" parent="WIyWlLk6GJQsqaUBKTNV-1">
          <mxGeometry x="40" y="100" width="120" height="60" as="geometry" />
        </mxCell>
        <mxCell id="NSDdITifI_UyCzYwIbky-16" value="&lt;p style=&quot;line-height: 100%;&quot;&gt;&lt;font style=&quot;font-size: 12px;&quot;&gt;Вывод описания программы&lt;/font&gt;&lt;/p&gt;" style="shape=parallelogram;perimeter=parallelogramPerimeter;whiteSpace=wrap;html=1;fixedSize=1;spacingLeft=4;" vertex="1" parent="WIyWlLk6GJQsqaUBKTNV-1">
          <mxGeometry x="40" y="180" width="120" height="40" as="geometry" />
        </mxCell>
        <mxCell id="NSDdITifI_UyCzYwIbky-19" value="A01" style="swimlane;fontStyle=0;childLayout=stackLayout;horizontal=1;startSize=20;horizontalStack=0;resizeParent=1;resizeParentMax=0;resizeLast=0;collapsible=1;marginBottom=0;whiteSpace=wrap;html=1;" vertex="1" parent="WIyWlLk6GJQsqaUBKTNV-1">
          <mxGeometry x="40" y="240" width="125" height="50" as="geometry" />
        </mxCell>
        <mxCell id="NSDdITifI_UyCzYwIbky-20" value="Выбор типа ввода" style="text;html=1;align=center;verticalAlign=middle;resizable=0;points=[];autosize=1;strokeColor=none;fillColor=none;" vertex="1" parent="NSDdITifI_UyCzYwIbky-19">
          <mxGeometry y="20" width="125" height="30" as="geometry" />
        </mxCell>
      </root>
    </mxGraphModel>
  </diagram>
  <diagram id="5_7Oo6jWHi_IwwyjGZF5" name="Input">
    <mxGraphModel dx="954" dy="558" grid="1" gridSize="10" guides="1" tooltips="1" connect="1" arrows="1" fold="1" page="1" pageScale="1" pageWidth="827" pageHeight="1169" math="0" shadow="0">
      <root>
        <mxCell id="0" />
        <mxCell id="1" parent="0" />
        <mxCell id="tg7vPiVI6AMjoJIus5V5-1" value="A01&lt;br&gt;Начало" style="strokeWidth=2;html=1;shape=mxgraph.flowchart.terminator;whiteSpace=wrap;" vertex="1" parent="1">
          <mxGeometry x="40" y="40" width="120" height="40" as="geometry" />
        </mxCell>
        <mxCell id="tg7vPiVI6AMjoJIus5V5-2" value="Ввод символа&lt;br&gt;type_of_input" style="shape=parallelogram;perimeter=parallelogramPerimeter;whiteSpace=wrap;html=1;fixedSize=1;" vertex="1" parent="1">
          <mxGeometry x="40" y="100" width="120" height="40" as="geometry" />
        </mxCell>
        <mxCell id="tg7vPiVI6AMjoJIus5V5-4" value="&lt;p style=&quot;line-height: 100%; font-size: 10px;&quot;&gt;type_of_input != &#39;f&#39; &amp;amp;&amp;amp; type_of_input != &#39;c&#39;?&lt;/p&gt;" style="strokeWidth=1;html=1;shape=mxgraph.flowchart.decision;whiteSpace=wrap;" vertex="1" parent="1">
          <mxGeometry x="30" y="160" width="140" height="60" as="geometry" />
        </mxCell>
        <mxCell id="tg7vPiVI6AMjoJIus5V5-5" value="&lt;p style=&quot;line-height: 100%;&quot;&gt;&lt;font style=&quot;font-size: 11px;&quot;&gt;Вывод сообщения об ошибке&lt;/font&gt;&lt;/p&gt;" style="shape=parallelogram;perimeter=parallelogramPerimeter;whiteSpace=wrap;html=1;fixedSize=1;spacingLeft=14;spacingRight=8;" vertex="1" parent="1">
          <mxGeometry x="200" y="220" width="120" height="40" as="geometry" />
        </mxCell>
        <mxCell id="tg7vPiVI6AMjoJIus5V5-6" value="Ввод символа&lt;br&gt;type_of_input" style="shape=parallelogram;perimeter=parallelogramPerimeter;whiteSpace=wrap;html=1;fixedSize=1;" vertex="1" parent="1">
          <mxGeometry x="200" y="280" width="120" height="40" as="geometry" />
        </mxCell>
        <mxCell id="tg7vPiVI6AMjoJIus5V5-8" value="" style="endArrow=none;html=1;rounded=0;entryX=0.5;entryY=1;entryDx=0;entryDy=0;exitX=0.5;exitY=0;exitDx=0;exitDy=0;exitPerimeter=0;" edge="1" parent="1" source="tg7vPiVI6AMjoJIus5V5-4" target="tg7vPiVI6AMjoJIus5V5-2">
          <mxGeometry width="50" height="50" relative="1" as="geometry">
            <mxPoint x="160" y="170" as="sourcePoint" />
            <mxPoint x="160" y="130" as="targetPoint" />
          </mxGeometry>
        </mxCell>
        <mxCell id="tg7vPiVI6AMjoJIus5V5-9" value="" style="endArrow=none;html=1;rounded=0;entryX=0.5;entryY=1;entryDx=0;entryDy=0;entryPerimeter=0;exitX=0.5;exitY=0;exitDx=0;exitDy=0;" edge="1" parent="1" source="tg7vPiVI6AMjoJIus5V5-2" target="tg7vPiVI6AMjoJIus5V5-1">
          <mxGeometry width="50" height="50" relative="1" as="geometry">
            <mxPoint x="200" y="150" as="sourcePoint" />
            <mxPoint x="200" y="110" as="targetPoint" />
          </mxGeometry>
        </mxCell>
        <mxCell id="tg7vPiVI6AMjoJIus5V5-10" value="" style="endArrow=none;html=1;rounded=0;entryX=1;entryY=0.5;entryDx=0;entryDy=0;entryPerimeter=0;exitX=0.5;exitY=0;exitDx=0;exitDy=0;" edge="1" parent="1" source="tg7vPiVI6AMjoJIus5V5-5" target="tg7vPiVI6AMjoJIus5V5-4">
          <mxGeometry width="50" height="50" relative="1" as="geometry">
            <mxPoint x="230" y="200" as="sourcePoint" />
            <mxPoint x="230" y="160" as="targetPoint" />
            <Array as="points">
              <mxPoint x="260" y="190" />
            </Array>
          </mxGeometry>
        </mxCell>
        <mxCell id="tg7vPiVI6AMjoJIus5V5-11" value="Да" style="text;html=1;strokeColor=none;fillColor=none;align=center;verticalAlign=middle;whiteSpace=wrap;rounded=0;" vertex="1" parent="1">
          <mxGeometry x="160" y="165" width="60" height="30" as="geometry" />
        </mxCell>
        <mxCell id="tg7vPiVI6AMjoJIus5V5-12" value="" style="endArrow=none;html=1;rounded=0;entryX=0.5;entryY=1;entryDx=0;entryDy=0;exitX=0.5;exitY=0;exitDx=0;exitDy=0;" edge="1" parent="1" source="tg7vPiVI6AMjoJIus5V5-6" target="tg7vPiVI6AMjoJIus5V5-5">
          <mxGeometry width="50" height="50" relative="1" as="geometry">
            <mxPoint x="350" y="320" as="sourcePoint" />
            <mxPoint x="350" y="280" as="targetPoint" />
          </mxGeometry>
        </mxCell>
        <mxCell id="tg7vPiVI6AMjoJIus5V5-13" value="" style="endArrow=none;html=1;rounded=0;entryX=0.5;entryY=1;entryDx=0;entryDy=0;startArrow=classic;startFill=1;" edge="1" parent="1" target="tg7vPiVI6AMjoJIus5V5-6">
          <mxGeometry width="50" height="50" relative="1" as="geometry">
            <mxPoint x="100" y="150" as="sourcePoint" />
            <mxPoint x="260" y="350" as="targetPoint" />
            <Array as="points">
              <mxPoint x="340" y="150" />
              <mxPoint x="340" y="340" />
              <mxPoint x="260" y="340" />
            </Array>
          </mxGeometry>
        </mxCell>
        <mxCell id="tg7vPiVI6AMjoJIus5V5-14" value="type_of_input == &#39;f&#39;?" style="strokeWidth=1;html=1;shape=mxgraph.flowchart.decision;whiteSpace=wrap;fontSize=10;" vertex="1" parent="1">
          <mxGeometry x="40" y="339.5" width="120" height="40" as="geometry" />
        </mxCell>
        <mxCell id="tg7vPiVI6AMjoJIus5V5-15" value="" style="endArrow=none;html=1;rounded=0;entryX=0.5;entryY=1;entryDx=0;entryDy=0;entryPerimeter=0;exitX=0.5;exitY=0;exitDx=0;exitDy=0;exitPerimeter=0;" edge="1" parent="1" source="tg7vPiVI6AMjoJIus5V5-14" target="tg7vPiVI6AMjoJIus5V5-4">
          <mxGeometry width="50" height="50" relative="1" as="geometry">
            <mxPoint x="30" y="320" as="sourcePoint" />
            <mxPoint x="30" y="280" as="targetPoint" />
          </mxGeometry>
        </mxCell>
        <mxCell id="tg7vPiVI6AMjoJIus5V5-16" value="Ввод имени файла" style="shape=parallelogram;perimeter=parallelogramPerimeter;whiteSpace=wrap;html=1;fixedSize=1;spacingLeft=10;spacingRight=10;" vertex="1" parent="1">
          <mxGeometry x="200" y="379.5" width="120" height="40" as="geometry" />
        </mxCell>
        <mxCell id="tg7vPiVI6AMjoJIus5V5-17" value="" style="endArrow=none;html=1;rounded=0;entryX=1;entryY=0.5;entryDx=0;entryDy=0;entryPerimeter=0;exitX=0.5;exitY=0;exitDx=0;exitDy=0;" edge="1" parent="1" source="tg7vPiVI6AMjoJIus5V5-16" target="tg7vPiVI6AMjoJIus5V5-14">
          <mxGeometry width="50" height="50" relative="1" as="geometry">
            <mxPoint x="160" y="424.5" as="sourcePoint" />
            <mxPoint x="160" y="384.5" as="targetPoint" />
            <Array as="points">
              <mxPoint x="260" y="360" />
            </Array>
          </mxGeometry>
        </mxCell>
        <mxCell id="tg7vPiVI6AMjoJIus5V5-19" value="Да" style="text;html=1;strokeColor=none;fillColor=none;align=center;verticalAlign=middle;whiteSpace=wrap;rounded=0;" vertex="1" parent="1">
          <mxGeometry x="151" y="335" width="60" height="30" as="geometry" />
        </mxCell>
        <mxCell id="tg7vPiVI6AMjoJIus5V5-20" value="f = fopen(filename, &quot;r&quot;)" style="rounded=0;whiteSpace=wrap;html=1;fontSize=11;" vertex="1" parent="1">
          <mxGeometry x="200" y="440" width="120" height="40" as="geometry" />
        </mxCell>
        <mxCell id="tg7vPiVI6AMjoJIus5V5-21" value="Файл не открылся?" style="strokeWidth=1;html=1;shape=mxgraph.flowchart.decision;whiteSpace=wrap;fontSize=10;" vertex="1" parent="1">
          <mxGeometry x="200" y="500" width="120" height="40" as="geometry" />
        </mxCell>
        <mxCell id="tg7vPiVI6AMjoJIus5V5-22" value="" style="endArrow=none;html=1;rounded=0;exitX=0.5;exitY=0;exitDx=0;exitDy=0;entryX=0.5;entryY=1;entryDx=0;entryDy=0;" edge="1" parent="1" source="tg7vPiVI6AMjoJIus5V5-20" target="tg7vPiVI6AMjoJIus5V5-16">
          <mxGeometry width="50" height="50" relative="1" as="geometry">
            <mxPoint x="380" y="484.5" as="sourcePoint" />
            <mxPoint x="330" y="434.5" as="targetPoint" />
          </mxGeometry>
        </mxCell>
        <mxCell id="tg7vPiVI6AMjoJIus5V5-23" value="" style="endArrow=none;html=1;rounded=0;entryX=0.5;entryY=1;entryDx=0;entryDy=0;exitX=0.5;exitY=0;exitDx=0;exitDy=0;exitPerimeter=0;" edge="1" parent="1" source="tg7vPiVI6AMjoJIus5V5-21" target="tg7vPiVI6AMjoJIus5V5-20">
          <mxGeometry width="50" height="50" relative="1" as="geometry">
            <mxPoint x="360" y="534.5" as="sourcePoint" />
            <mxPoint x="360" y="494.5" as="targetPoint" />
          </mxGeometry>
        </mxCell>
        <mxCell id="tg7vPiVI6AMjoJIus5V5-24" value="&lt;p style=&quot;line-height: 100%;&quot;&gt;&lt;font style=&quot;font-size: 11px;&quot;&gt;Вывод сообщения об ошибке&lt;/font&gt;&lt;/p&gt;" style="shape=parallelogram;perimeter=parallelogramPerimeter;whiteSpace=wrap;html=1;fixedSize=1;spacingLeft=14;spacingRight=8;" vertex="1" parent="1">
          <mxGeometry x="360" y="540" width="120" height="40" as="geometry" />
        </mxCell>
        <mxCell id="tg7vPiVI6AMjoJIus5V5-25" value="" style="endArrow=none;html=1;rounded=0;entryX=1;entryY=0.5;entryDx=0;entryDy=0;entryPerimeter=0;exitX=0.5;exitY=0;exitDx=0;exitDy=0;" edge="1" parent="1" source="tg7vPiVI6AMjoJIus5V5-24" target="tg7vPiVI6AMjoJIus5V5-21">
          <mxGeometry width="50" height="50" relative="1" as="geometry">
            <mxPoint x="370" y="520" as="sourcePoint" />
            <mxPoint x="370" y="480" as="targetPoint" />
            <Array as="points">
              <mxPoint x="420" y="520" />
            </Array>
          </mxGeometry>
        </mxCell>
        <mxCell id="tg7vPiVI6AMjoJIus5V5-26" value="Да" style="text;html=1;strokeColor=none;fillColor=none;align=center;verticalAlign=middle;whiteSpace=wrap;rounded=0;" vertex="1" parent="1">
          <mxGeometry x="310" y="494" width="60" height="30" as="geometry" />
        </mxCell>
        <mxCell id="tg7vPiVI6AMjoJIus5V5-27" value="Ввод имени файла" style="shape=parallelogram;perimeter=parallelogramPerimeter;whiteSpace=wrap;html=1;fixedSize=1;spacingLeft=10;spacingRight=10;" vertex="1" parent="1">
          <mxGeometry x="360" y="600" width="120" height="40" as="geometry" />
        </mxCell>
        <mxCell id="tg7vPiVI6AMjoJIus5V5-28" value="f = fopen(filename, &quot;r&quot;)" style="rounded=0;whiteSpace=wrap;html=1;fontSize=11;" vertex="1" parent="1">
          <mxGeometry x="360" y="660" width="120" height="40" as="geometry" />
        </mxCell>
        <mxCell id="tg7vPiVI6AMjoJIus5V5-29" value="" style="endArrow=none;html=1;rounded=0;entryX=0.5;entryY=1;entryDx=0;entryDy=0;exitX=0.5;exitY=0;exitDx=0;exitDy=0;" edge="1" parent="1" source="tg7vPiVI6AMjoJIus5V5-28" target="tg7vPiVI6AMjoJIus5V5-27">
          <mxGeometry width="50" height="50" relative="1" as="geometry">
            <mxPoint x="520" y="670" as="sourcePoint" />
            <mxPoint x="520" y="630" as="targetPoint" />
          </mxGeometry>
        </mxCell>
        <mxCell id="tg7vPiVI6AMjoJIus5V5-30" value="" style="endArrow=none;html=1;rounded=0;entryX=0.5;entryY=1;entryDx=0;entryDy=0;exitX=0.5;exitY=0;exitDx=0;exitDy=0;" edge="1" parent="1" source="tg7vPiVI6AMjoJIus5V5-27" target="tg7vPiVI6AMjoJIus5V5-24">
          <mxGeometry width="50" height="50" relative="1" as="geometry">
            <mxPoint x="270" y="630" as="sourcePoint" />
            <mxPoint x="270" y="590" as="targetPoint" />
          </mxGeometry>
        </mxCell>
        <mxCell id="xyVUoynWHIx8DQ-eRRzu-1" value="" style="endArrow=none;html=1;rounded=0;entryX=0.5;entryY=1;entryDx=0;entryDy=0;startArrow=classic;startFill=1;" edge="1" parent="1" target="tg7vPiVI6AMjoJIus5V5-28">
          <mxGeometry width="50" height="50" relative="1" as="geometry">
            <mxPoint x="260" y="490" as="sourcePoint" />
            <mxPoint x="420" y="740" as="targetPoint" />
            <Array as="points">
              <mxPoint x="520" y="490" />
              <mxPoint x="520" y="720" />
              <mxPoint x="420" y="720" />
            </Array>
          </mxGeometry>
        </mxCell>
        <mxCell id="xyVUoynWHIx8DQ-eRRzu-2" value="f = stdin" style="rounded=0;whiteSpace=wrap;html=1;" vertex="1" parent="1">
          <mxGeometry x="40" y="660" width="120" height="40" as="geometry" />
        </mxCell>
        <mxCell id="BXEfbm4jrfsREOSHq63r-1" value="A01&lt;br&gt;Конец" style="strokeWidth=2;html=1;shape=mxgraph.flowchart.terminator;whiteSpace=wrap;" vertex="1" parent="1">
          <mxGeometry x="40" y="720" width="120" height="40" as="geometry" />
        </mxCell>
        <mxCell id="BXEfbm4jrfsREOSHq63r-2" value="" style="endArrow=none;html=1;rounded=0;entryX=0.5;entryY=1;entryDx=0;entryDy=0;entryPerimeter=0;exitX=0.5;exitY=0;exitDx=0;exitDy=0;" edge="1" parent="1" source="xyVUoynWHIx8DQ-eRRzu-2" target="tg7vPiVI6AMjoJIus5V5-14">
          <mxGeometry width="50" height="50" relative="1" as="geometry">
            <mxPoint x="100" y="590" as="sourcePoint" />
            <mxPoint x="100" y="550" as="targetPoint" />
          </mxGeometry>
        </mxCell>
        <mxCell id="BXEfbm4jrfsREOSHq63r-3" value="" style="endArrow=none;html=1;rounded=0;entryX=0.5;entryY=1;entryDx=0;entryDy=0;entryPerimeter=0;" edge="1" parent="1" target="tg7vPiVI6AMjoJIus5V5-21">
          <mxGeometry width="50" height="50" relative="1" as="geometry">
            <mxPoint x="100" y="710" as="sourcePoint" />
            <mxPoint x="270" y="650" as="targetPoint" />
            <Array as="points">
              <mxPoint x="260" y="710" />
            </Array>
          </mxGeometry>
        </mxCell>
        <mxCell id="BXEfbm4jrfsREOSHq63r-4" value="" style="endArrow=none;html=1;rounded=0;entryX=0.5;entryY=1;entryDx=0;entryDy=0;exitX=0.5;exitY=0;exitDx=0;exitDy=0;exitPerimeter=0;" edge="1" parent="1" source="BXEfbm4jrfsREOSHq63r-1" target="xyVUoynWHIx8DQ-eRRzu-2">
          <mxGeometry width="50" height="50" relative="1" as="geometry">
            <mxPoint x="170" y="620" as="sourcePoint" />
            <mxPoint x="170" y="580" as="targetPoint" />
          </mxGeometry>
        </mxCell>
      </root>
    </mxGraphModel>
  </diagram>
</mxfile>
